<?xml version="1.0" encoding="UTF-8"?>
<svg width="60" height="60" viewBox="0 0 60 60" fill="none" xmlns="http://www.w3.org/2000/svg">
  <!-- Main center star -->
  <path d="M30 15L32.9 23.1L41 26L32.9 28.9L30 37L27.1 28.9L19 26L27.1 23.1L30 15Z" fill="#FFD700" filter="url(#glow)"/>
  
  <!-- Smaller surrounding stars -->
  <path d="M45 20L46.5 24.5L51 26L46.5 27.5L45 32L43.5 27.5L39 26L43.5 24.5L45 20Z" fill="#FFEB3B" filter="url(#glow)"/>
  <path d="M15 20L16.5 24.5L21 26L16.5 27.5L15 32L13.5 27.5L9 26L13.5 24.5L15 20Z" fill="#FFEB3B" filter="url(#glow)"/>
  <path d="M30 40L31.5 44.5L36 46L31.5 47.5L30 52L28.5 47.5L24 46L28.5 44.5L30 40Z" fill="#FFEB3B" filter="url(#glow)"/>
  
  <!-- Tiny sparkles -->
  <circle cx="20" cy="36" r="1.5" fill="#FFF9C4" filter="url(#tinyGlow)"/>
  <circle cx="40" cy="36" r="1.5" fill="#FFF9C4" filter="url(#tinyGlow)"/>
  <circle cx="12" cy="46" r="1" fill="#FFF9C4" filter="url(#tinyGlow)"/>
  <circle cx="48" cy="46" r="1" fill="#FFF9C4" filter="url(#tinyGlow)"/>
  <circle cx="30" cy="10" r="1" fill="#FFF9C4" filter="url(#tinyGlow)"/>
  
  <!-- Glows and filters -->
  <defs>
    <filter id="glow" x="-20%" y="-20%" width="140%" height="140%" filterUnits="objectBoundingBox">
      <feGaussianBlur stdDeviation="2" result="blur"/>
      <feComposite in="SourceGraphic" in2="blur" operator="over"/>
    </filter>
    <filter id="tinyGlow" x="-100%" y="-100%" width="300%" height="300%" filterUnits="objectBoundingBox">
      <feGaussianBlur stdDeviation="1" result="blur"/>
      <feComposite in="SourceGraphic" in2="blur" operator="over"/>
    </filter>
  </defs>
</svg>