<?xml version="1.0" encoding="UTF-8" standalone="no"?>
<svg width="800" height="800" viewBox="0 0 800 800" xmlns="http://www.w3.org/2000/svg">
  <defs>
    <linearGradient id="sparkleGradient" x1="0%" y1="0%" x2="100%" y2="100%">
      <stop offset="0%" style="stop-color:#9747FF;stop-opacity:1" />
      <stop offset="100%" style="stop-color:#4BB8FF;stop-opacity:1" />
    </linearGradient>
  </defs>
  
  <!-- Large star -->
  <path d="M400 100 C450 200, 600 200, 700 400 C600 600, 450 600, 400 700 C350 600, 200 600, 100 400 C200 200, 350 200, 400 100" fill="url(#sparkleGradient)" />
  
  <!-- Medium star -->
  <path d="M200 500 C220 550, 280 550, 300 600 C280 650, 220 650, 200 700 C180 650, 120 650, 100 600 C120 550, 180 550, 200 500" fill="url(#sparkleGradient)" />
  
  <!-- Small star -->
  <path d="M100 300 C110 320, 130 320, 140 350 C130 380, 110 380, 100 400 C90 380, 70 380, 60 350 C70 320, 90 320, 100 300" fill="url(#sparkleGradient)" />
</svg>